<svg width="72" height="72" viewBox="0 0 72 72" fill="none" xmlns="http://www.w3.org/2000/svg">
<path d="M69.7502 34.8751C69.7472 31.8948 68.9003 28.9762 67.3076 26.4572C65.7148 23.9382 63.4413 21.9217 60.7502 20.6411V20.2501C60.7476 17.3511 59.8118 14.5298 58.0813 12.2039C56.3508 9.87793 53.9175 8.17084 51.1415 7.3352C48.3655 6.49955 45.3942 6.57974 42.6673 7.5639C39.9403 8.54807 37.6027 10.3839 36.0002 12.7998C34.3976 10.3839 32.06 8.54807 29.3331 7.5639C26.6061 6.57974 23.6349 6.49955 20.8588 7.3352C18.0828 8.17084 15.6495 9.87793 13.919 12.2039C12.1885 14.5298 11.2528 17.3511 11.2502 20.2501V20.6411C8.55673 21.9182 6.28102 23.9334 4.68749 26.4526C3.09396 28.9718 2.24805 31.8914 2.24805 34.8723C2.24805 37.8532 3.09396 40.7729 4.68749 43.292C6.28102 45.8112 8.55673 47.8264 11.2502 49.1036V49.5001C11.2528 52.3992 12.1885 55.2204 13.919 57.5464C15.6495 59.8723 18.0828 61.5794 20.8588 62.4151C23.6349 63.2507 26.6061 63.1705 29.3331 62.1864C32.06 61.2022 34.3976 59.3663 36.0002 56.9504C37.6027 59.3663 39.9403 61.2022 42.6673 62.1864C45.3942 63.1705 48.3655 63.2507 51.1415 62.4151C53.9175 61.5794 56.3508 59.8723 58.0813 57.5464C59.8118 55.2204 60.7476 52.3992 60.7502 49.5001V49.1036C63.4409 47.8239 65.7142 45.8084 67.3069 43.2903C68.8997 40.7723 69.7468 37.8546 69.7502 34.8751ZM24.7502 58.5001C22.5309 58.4998 20.3901 57.6796 18.7388 56.197C17.0875 54.7144 16.0422 52.674 15.8036 50.4676C16.5312 50.5713 17.2652 50.6239 18.0002 50.6251H20.2502C20.8469 50.6251 21.4192 50.3881 21.8411 49.9661C22.2631 49.5442 22.5002 48.9719 22.5002 48.3751C22.5002 47.7784 22.2631 47.2061 21.8411 46.7841C21.4192 46.3622 20.8469 46.1251 20.2502 46.1251H18.0002C15.3439 46.1282 12.7723 45.1914 10.7405 43.4804C8.70869 41.7694 7.34784 39.3947 6.89888 36.7766C6.44991 34.1586 6.94178 31.4662 8.2874 29.176C9.63302 26.8858 11.7456 25.1456 14.2511 24.2636C14.6895 24.1083 15.069 23.8211 15.3375 23.4414C15.6059 23.0616 15.7501 22.608 15.7502 22.1429V20.2501C15.7502 17.8632 16.6984 15.574 18.3862 13.8862C20.074 12.1983 22.3632 11.2501 24.7502 11.2501C27.1371 11.2501 29.4263 12.1983 31.1141 13.8862C32.8019 15.574 33.7502 17.8632 33.7502 20.2501V39.4482C31.2794 37.2261 28.0732 35.9977 24.7502 36.0001C24.1534 36.0001 23.5811 36.2372 23.1592 36.6591C22.7372 37.0811 22.5002 37.6534 22.5002 38.2501C22.5002 38.8469 22.7372 39.4192 23.1592 39.8411C23.5811 40.2631 24.1534 40.5001 24.7502 40.5001C27.1371 40.5001 29.4263 41.4483 31.1141 43.1362C32.8019 44.824 33.7502 47.1132 33.7502 49.5001C33.7502 51.8871 32.8019 54.1763 31.1141 55.8641C29.4263 57.5519 27.1371 58.5001 24.7502 58.5001ZM54.0002 46.1251H51.7502C51.1534 46.1251 50.5811 46.3622 50.1592 46.7841C49.7372 47.2061 49.5002 47.7784 49.5002 48.3751C49.5002 48.9719 49.7372 49.5442 50.1592 49.9661C50.5811 50.3881 51.1534 50.6251 51.7502 50.6251H54.0002C54.7351 50.6239 55.4691 50.5713 56.1967 50.4676C56.0098 52.1964 55.3261 53.834 54.2283 55.1824C53.1304 56.5308 51.6655 57.5324 50.0105 58.0659C48.3556 58.5995 46.5815 58.6422 44.9028 58.189C43.2241 57.7357 41.7126 56.8058 40.5512 55.5118C39.3897 54.2178 38.6279 52.615 38.358 50.8973C38.088 49.1795 38.3215 47.4204 39.0301 45.8325C39.7387 44.2446 40.8921 42.896 42.3509 41.9496C43.8097 41.0033 45.5113 40.4999 47.2502 40.5001C47.8469 40.5001 48.4192 40.2631 48.8412 39.8411C49.2631 39.4192 49.5002 38.8469 49.5002 38.2501C49.5002 37.6534 49.2631 37.0811 48.8412 36.6591C48.4192 36.2372 47.8469 36.0001 47.2502 36.0001C43.9271 35.9977 40.7209 37.2261 38.2502 39.4482V20.2501C38.2502 17.8632 39.1984 15.574 40.8862 13.8862C42.574 12.1983 44.8632 11.2501 47.2502 11.2501C49.6371 11.2501 51.9263 12.1983 53.6141 13.8862C55.3019 15.574 56.2502 17.8632 56.2502 20.2501V22.1429C56.2502 22.608 56.3944 23.0616 56.6629 23.4414C56.9313 23.8211 57.3108 24.1083 57.7492 24.2636C60.2547 25.1456 62.3673 26.8858 63.7129 29.176C65.0585 31.4662 65.5504 34.1586 65.1014 36.7766C64.6525 39.3947 63.2916 41.7694 61.2598 43.4804C59.2281 45.1914 56.6564 46.1282 54.0002 46.1251ZM58.5002 31.5001C58.5002 32.0969 58.2631 32.6692 57.8412 33.0911C57.4192 33.5131 56.8469 33.7501 56.2502 33.7501H55.1252C52.4398 33.7501 49.8645 32.6834 47.9657 30.7846C46.0669 28.8858 45.0002 26.3104 45.0002 23.6251V22.5001C45.0002 21.9034 45.2372 21.3311 45.6592 20.9091C46.0811 20.4872 46.6534 20.2501 47.2502 20.2501C47.8469 20.2501 48.4192 20.4872 48.8412 20.9091C49.2631 21.3311 49.5002 21.9034 49.5002 22.5001V23.6251C49.5002 25.117 50.0928 26.5477 51.1477 27.6026C52.2026 28.6575 53.6333 29.2501 55.1252 29.2501H56.2502C56.8469 29.2501 57.4192 29.4872 57.8412 29.9091C58.2631 30.3311 58.5002 30.9034 58.5002 31.5001ZM16.8752 33.7501H15.7502C15.1534 33.7501 14.5811 33.5131 14.1592 33.0911C13.7372 32.6692 13.5002 32.0969 13.5002 31.5001C13.5002 30.9034 13.7372 30.3311 14.1592 29.9091C14.5811 29.4872 15.1534 29.2501 15.7502 29.2501H16.8752C18.367 29.2501 19.7977 28.6575 20.8526 27.6026C21.9075 26.5477 22.5002 25.117 22.5002 23.6251V22.5001C22.5002 21.9034 22.7372 21.3311 23.1592 20.9091C23.5811 20.4872 24.1534 20.2501 24.7502 20.2501C25.3469 20.2501 25.9192 20.4872 26.3411 20.9091C26.7631 21.3311 27.0002 21.9034 27.0002 22.5001V23.6251C27.0002 26.3104 25.9334 28.8858 24.0346 30.7846C22.1358 32.6834 19.5605 33.7501 16.8752 33.7501Z" fill="url(#paint0_linear_221_1800)"/>
<defs>
<linearGradient id="paint0_linear_221_1800" x1="35.9991" y1="6.76221" x2="35.9991" y2="62.988" gradientUnits="userSpaceOnUse">
<stop stop-color="#0BCB7A"/>
<stop offset="1" stop-color="#003D23"/>
</linearGradient>
</defs>
</svg>
