<svg width="72" height="72" viewBox="0 0 72 72" fill="none" xmlns="http://www.w3.org/2000/svg">
<path d="M64.0314 25.2482C66.4341 31.7018 66.5562 38.7832 64.3776 45.3159C62.1989 51.8485 57.8505 57.439 52.0551 61.1584C46.2596 64.8779 39.3659 66.5023 32.5195 65.7619C25.6731 65.0214 19.2861 61.9606 14.4199 57.0881C8.95361 51.6398 5.78362 44.3035 5.56223 36.589C5.34084 28.8744 8.0849 21.3684 13.2297 15.6156C18.3746 9.86288 25.5287 6.30096 33.2201 5.6629C40.9114 5.02483 48.5547 7.35916 54.5772 12.1855L60.191 6.56885C60.5028 6.25709 60.8729 6.00978 61.2803 5.84106C61.6876 5.67234 62.1242 5.58549 62.5651 5.58549C63.006 5.58549 63.4426 5.67234 63.8499 5.84106C64.2572 6.00978 64.6273 6.25709 64.9391 6.56885C65.2509 6.88061 65.4982 7.25072 65.6669 7.65806C65.8356 8.06539 65.9225 8.50197 65.9225 8.94287C65.9225 9.38377 65.8356 9.82035 65.6669 10.2277C65.4982 10.635 65.2509 11.0051 64.9391 11.3169L38.1266 38.1294C37.8148 38.4412 37.4447 38.6885 37.0374 38.8572C36.6301 39.0259 36.1935 39.1127 35.7526 39.1127C35.3117 39.1127 34.8751 39.0259 34.4678 38.8572C34.0604 38.6885 33.6903 38.4412 33.3786 38.1294C33.0668 37.8176 32.8195 37.4475 32.6508 37.0402C32.482 36.6328 32.3952 36.1963 32.3952 35.7554C32.3952 35.3145 32.482 34.8779 32.6508 34.4706C32.8195 34.0632 33.0668 33.6931 33.3786 33.3813L40.0817 26.6782C38.1925 25.7756 36.0686 25.4853 34.0064 25.8478C31.9443 26.2103 30.0467 27.2075 28.5786 28.7003C27.1104 30.193 26.1449 32.1069 25.8167 34.1748C25.4886 36.2427 25.8142 38.3615 26.7481 40.2354C27.682 42.1094 29.1776 43.645 31.0262 44.6281C32.8749 45.6112 34.9843 45.9926 37.0601 45.7192C39.136 45.4458 41.0747 44.5312 42.6057 43.103C44.1368 41.6748 45.1838 39.8042 45.6006 37.7523C45.7761 36.8809 46.2907 36.1148 47.0311 35.6227C47.7714 35.1306 48.677 34.9528 49.5484 35.1283C50.4199 35.3039 51.186 35.8185 51.6781 36.5588C52.1702 37.2992 52.348 38.2047 52.1724 39.0762C51.4585 42.593 49.6345 45.7878 46.9689 48.1903C44.3033 50.5928 40.9368 52.0762 37.365 52.4221C33.7931 52.768 30.2046 51.9582 27.1275 50.1118C24.0504 48.2655 21.6472 45.4801 20.2717 42.1657C18.8962 38.8512 18.621 35.1827 19.4866 31.7001C20.3522 28.2175 22.3129 25.1048 25.0801 22.82C27.8473 20.5352 31.2749 19.1991 34.8583 19.0082C38.4418 18.8174 41.9919 19.7819 44.9861 21.7598L49.7984 16.9643C45.278 13.5883 39.6924 11.9544 34.0652 12.3619C28.438 12.7695 23.1461 15.1913 19.1594 19.1834C15.1726 23.1756 12.758 28.4707 12.3581 34.0985C11.9581 39.7262 13.5996 45.3096 16.9818 49.8255C20.3639 54.3413 25.2601 57.4871 30.7731 58.6864C36.2861 59.8856 42.0467 59.058 46.9991 56.3552C51.9515 53.6524 55.764 49.2555 57.7381 43.9701C59.7121 38.6848 59.7153 32.8651 57.7472 27.5776C57.5905 27.1642 57.5172 26.7239 57.5314 26.282C57.5456 25.8402 57.6471 25.4055 57.83 25.003C58.0129 24.6006 58.2737 24.2383 58.5972 23.937C58.9207 23.6357 59.3007 23.4014 59.7151 23.2476C60.1296 23.0938 60.5704 23.0235 61.0121 23.0408C61.4539 23.058 61.8879 23.1625 62.289 23.3482C62.6902 23.5339 63.0507 23.7972 63.3498 24.1228C63.6488 24.4484 63.8804 24.8299 64.0314 25.2454V25.2482Z" fill="url(#paint0_linear_221_1806)"/>
<defs>
<linearGradient id="paint0_linear_221_1806" x1="35.7384" y1="5.55957" x2="35.7384" y2="65.9368" gradientUnits="userSpaceOnUse">
<stop stop-color="#0BCC7A"/>
<stop offset="1" stop-color="#013E23"/>
</linearGradient>
</defs>
</svg>
