<svg width="72" height="72" viewBox="0 0 72 72" fill="none" xmlns="http://www.w3.org/2000/svg">
<path fill-rule="evenodd" clip-rule="evenodd" d="M36 3.74988C30.516 3.74988 25.983 4.23288 22.494 4.82088L22.092 4.88988C19.062 5.39688 16.542 5.81988 14.571 8.24388C13.311 9.80088 12.9 11.4839 12.807 13.3589L11.331 13.8509C9.942 14.3129 8.721 14.7209 7.758 15.1709C6.714 15.6569 5.757 16.2809 5.025 17.2979C4.293 18.3149 4.002 19.4189 3.87 20.5619C3.75 21.6209 3.75 22.9019 3.75 24.3689V24.8039C3.75 26.0099 3.75 27.0749 3.84 27.9659C3.936 28.9289 4.149 29.8679 4.68 30.7739C5.217 31.6829 5.931 32.3249 6.729 32.8769C7.464 33.3869 8.394 33.9059 9.45 34.4909L17.37 38.8919C18.99 42.0749 21.213 44.9129 24.27 46.9619C26.931 48.7499 30.126 49.8719 33.909 50.1689C33.8072 50.4343 33.7534 50.7157 33.75 50.9999V56.2499H29.46C28.2462 56.2499 27.07 56.6705 26.1314 57.4401C25.1928 58.2097 24.5499 59.2807 24.312 60.4709L23.655 63.7499H18C17.4033 63.7499 16.831 63.9869 16.409 64.4089C15.9871 64.8309 15.75 65.4031 15.75 65.9999C15.75 66.5966 15.9871 67.1689 16.409 67.5909C16.831 68.0128 17.4033 68.2499 18 68.2499H54C54.5967 68.2499 55.169 68.0128 55.591 67.5909C56.0129 67.1689 56.25 66.5966 56.25 65.9999C56.25 65.4031 56.0129 64.8309 55.591 64.4089C55.169 63.9869 54.5967 63.7499 54 63.7499H48.345L47.688 60.4709C47.4501 59.2807 46.8072 58.2097 45.8686 57.4401C44.93 56.6705 43.7537 56.2499 42.54 56.2499H38.25V50.9999C38.2466 50.7157 38.1928 50.4343 38.091 50.1689C41.874 49.8689 45.069 48.7499 47.73 46.9649C50.79 44.9129 53.01 42.0749 54.63 38.8919L62.55 34.4909C63.606 33.9059 64.536 33.3869 65.271 32.8769C66.066 32.3249 66.783 31.6829 67.317 30.7769C67.851 29.8679 68.067 28.9289 68.16 27.9659C68.25 27.0749 68.25 26.0099 68.25 24.8039V24.3689C68.25 22.9049 68.25 21.6209 68.13 20.5619C67.998 19.4189 67.71 18.3119 66.975 17.2979C66.243 16.2809 65.286 15.6569 64.245 15.1679C63.276 14.7179 62.058 14.3129 60.669 13.8509L59.193 13.3589C59.103 11.4809 58.692 9.80088 57.429 8.24388C55.461 5.81688 52.941 5.39388 49.911 4.88988L49.506 4.82088C45.0418 4.08733 40.524 3.72908 36 3.74988ZM43.755 63.7499L43.275 61.3529C43.241 61.1829 43.1492 61.03 43.0152 60.9201C42.8812 60.8101 42.7133 60.75 42.54 60.7499H29.46C29.2867 60.75 29.1187 60.8101 28.9847 60.9201C28.8508 61.03 28.759 61.1829 28.725 61.3529L28.245 63.7499H43.755ZM12.864 18.0839L12.906 18.0689C13.122 22.6289 13.635 27.6689 14.919 32.3789L11.721 30.6059C10.554 29.9549 9.822 29.5469 9.294 29.1809C8.808 28.8419 8.649 28.6409 8.562 28.4909C8.472 28.3409 8.376 28.1069 8.316 27.5189C8.25399 26.5822 8.23197 25.6434 8.25 24.7049V24.4859C8.25 22.8689 8.253 21.8459 8.34 21.0719C8.424 20.3579 8.556 20.0909 8.676 19.9289C8.793 19.7639 9.003 19.5539 9.654 19.2509C10.362 18.9209 11.334 18.5969 12.864 18.0839ZM59.094 18.0659C58.881 22.6259 58.365 27.6659 57.084 32.3759L60.279 30.6029C61.446 29.9519 62.178 29.5439 62.706 29.1779C63.192 28.8389 63.351 28.6379 63.438 28.4879C63.528 28.3379 63.624 28.1039 63.684 27.5159C63.747 26.8739 63.75 26.0369 63.75 24.7019V24.4829C63.75 22.8659 63.747 21.8429 63.66 21.0689C63.576 20.3549 63.444 20.0879 63.324 19.9259C63.207 19.7609 62.997 19.5509 62.346 19.2479C61.638 18.9179 60.666 18.5909 59.136 18.0779L59.094 18.0659ZM23.244 9.25788C27.4606 8.56763 31.7274 8.23046 36 8.24988C41.22 8.24988 45.501 8.70888 48.756 9.25788C52.377 9.86988 53.136 10.0979 53.937 11.0819C54.723 12.0479 54.798 12.9659 54.636 17.0309C54.366 23.8049 53.472 31.1189 50.706 36.6809C49.338 39.4229 47.55 41.6669 45.225 43.2269C42.912 44.7779 39.927 45.7499 36 45.7499C32.073 45.7499 29.091 44.7779 26.778 43.2269C24.45 41.6669 22.662 39.4229 21.297 36.6779C18.528 31.1189 17.637 23.8079 17.367 17.0279C17.205 12.9659 17.277 12.0479 18.066 11.0819C18.864 10.0979 19.623 9.86988 23.244 9.25788Z" fill="url(#paint0_linear_221_1802)"/>
<defs>
<linearGradient id="paint0_linear_221_1802" x1="36" y1="3.74902" x2="36" y2="68.2499" gradientUnits="userSpaceOnUse">
<stop stop-color="#0CCD7B"/>
<stop offset="1" stop-color="#013F24"/>
</linearGradient>
</defs>
</svg>
