<svg width="77" height="77" viewBox="0 0 77 77" fill="none" xmlns="http://www.w3.org/2000/svg">
<path d="M69.6528 29.8052L56.8195 16.9719C56.5203 16.6727 56.1652 16.4354 55.7743 16.2735C55.3835 16.1116 54.9646 16.0283 54.5415 16.0283C53.6872 16.0283 52.8678 16.3677 52.2636 16.9719C51.6595 17.576 51.3201 18.3954 51.3201 19.2498C51.3201 20.1042 51.6595 20.9236 52.2636 21.5277L59.6428 28.8748H22.4582C21.6073 28.8748 20.7913 29.2128 20.1896 29.8145C19.5879 30.4162 19.2499 31.2322 19.2499 32.0831C19.2499 32.934 19.5879 33.7501 20.1896 34.3517C20.7913 34.9534 21.6073 35.2914 22.4582 35.2914H67.3749C68.0083 35.2883 68.6266 35.0977 69.1519 34.7437C69.6771 34.3897 70.0859 33.8882 70.3265 33.3023C70.5722 32.718 70.6394 32.0741 70.5195 31.4517C70.3995 30.8293 70.098 30.2564 69.6528 29.8052ZM54.5415 41.7081H9.62488C8.99147 41.7113 8.37317 41.9019 7.8479 42.2558C7.32264 42.6098 6.9139 43.1114 6.67321 43.6973C6.42752 44.2816 6.36039 44.9255 6.4803 45.5479C6.60021 46.1703 6.90178 46.7432 7.34696 47.1944L20.1803 60.0277C20.4786 60.3284 20.8334 60.5671 21.2244 60.73C21.6153 60.8929 22.0347 60.9767 22.4582 60.9767C22.8818 60.9767 23.3011 60.8929 23.6921 60.73C24.083 60.5671 24.4379 60.3284 24.7361 60.0277C25.0368 59.7294 25.2755 59.3746 25.4384 58.9836C25.6013 58.5927 25.6851 58.1733 25.6851 57.7498C25.6851 57.3262 25.6013 56.9069 25.4384 56.5159C25.2755 56.125 25.0368 55.7701 24.7361 55.4719L17.357 48.1248H54.5415C55.3924 48.1248 56.2085 47.7868 56.8102 47.1851C57.4119 46.5834 57.7499 45.7673 57.7499 44.9164C57.7499 44.0655 57.4119 43.2495 56.8102 42.6478C56.2085 42.0461 55.3924 41.7081 54.5415 41.7081Z" fill="url(#paint0_linear_221_1804)"/>
<defs>
<linearGradient id="paint0_linear_221_1804" x1="38.4999" y1="16.0283" x2="38.4999" y2="60.9767" gradientUnits="userSpaceOnUse">
<stop stop-color="#0BCB79"/>
<stop offset="1" stop-color="#003E24"/>
</linearGradient>
</defs>
</svg>
